# xmcd
#
# Track frame offsets:
#	150
#	20150
#	40910
#	59690
#	79567
#	97780
#	115997
#	135420
#	156122
#	176947
#	198153
#	220387
#	238725
#	261772
#	278947
#	300592
#	320857
#
# Disc length: 4487 seconds
#
# Revision: 0
# Processed by: cddbd v1.5.2PL0 Copyright (c) Steve Scherf et al.
# Submitted via: EasyCDDAExtractor 12.1.0.1
#
DISCID=f6118511
DTITLE=Various Artist - 명작 가요 101  CD1
DYEAR=1900
DGENRE=
TTITLE0=신승훈 - 그후로 오랫동안
TTITLE1=에코 - 행복한 나를
TTITLE2=김건모 - 아름다운 이별
TTITLE3=박미경 - 오늘밤
TTITLE4=김현철 - 일생을
TTITLE5=장혜진 - 1994년 어느 늦은 밤
TTITLE6=조규찬 - 달라진건 없지만
TTITLE7=김경호 - 마지막 기도
TTITLE8=케이투 - 슬프도록 아름다운
TTITLE9=정재형 - 내 눈물 모아
TTITLE10=임창정 - 소주한잔
TTITLE11=김종서 - 그겨울의 찻집
TTITLE12=솔리드 - 이밤의 끝을 잡고
TTITLE13=신촌블루스 - 그대없는 거리
TTITLE14=오석준 - 내일이 찾아오면
TTITLE15=델리스파이스 - 챠우챠우
TTITLE16=고유진 - Sunday Kiss
EXTD=
EXTT0=
EXTT1=
EXTT2=
EXTT3=
EXTT4=
EXTT5=
EXTT6=
EXTT7=
EXTT8=
EXTT9=
EXTT10=
EXTT11=
EXTT12=
EXTT13=
EXTT14=
EXTT15=
EXTT16=
PLAYORDER=
